<svg width="48" height="54" viewBox="0 0 48 54" fill="none" xmlns="http://www.w3.org/2000/svg">
<g filter="url(#filter0_b_158_217)">
<g filter="url(#filter1_i_158_217)">
<path d="M42.4581 14.5236C42.5807 13.8275 42.6446 13.1114 42.6446 12.3805C42.6446 5.54292 37.05 0 30.1488 0C25.0182 0 20.6099 3.06339 18.6854 7.4447C17.1264 6.1111 15.1033 5.30591 12.8926 5.30591C7.96308 5.30591 3.96694 9.30913 3.96694 14.2473C3.96694 14.5223 3.97934 14.7944 4.00359 15.0631C1.6326 16.2137 0 18.628 0 21.4202C0 25.3273 3.19691 28.4947 7.1405 28.4947H40.8595C44.8031 28.4947 48 25.3273 48 21.4202C48 18.0575 45.632 15.2428 42.4581 14.5236Z" fill="url(#paint0_linear_158_217)"/>
</g>
</g>
<g clip-path="url(#clip0_158_217)">
<path d="M11.2648 30.7723L9.36267 30.6657C9.31463 30.6631 9.26837 30.6466 9.2295 30.6182C9.19062 30.5899 9.16079 30.5509 9.1436 30.5059C9.12641 30.461 9.1226 30.412 9.13264 30.365C9.14267 30.3179 9.16612 30.2748 9.20014 30.2407L9.19977 30.2403L10.457 28.9831L9.1872 27.5626C9.15521 27.5268 9.13425 27.4826 9.12686 27.4351C9.11948 27.3877 9.12597 27.3391 9.14557 27.2953C9.16517 27.2514 9.19703 27.2142 9.23731 27.1881C9.27759 27.162 9.32457 27.148 9.37258 27.148V27.147H11.1501L11.2567 25.2449C11.2593 25.1969 11.2758 25.1506 11.3042 25.1117C11.3325 25.0728 11.3715 25.043 11.4165 25.0258C11.4614 25.0086 11.5104 25.0048 11.5574 25.0149C11.6045 25.0249 11.6477 25.0483 11.6817 25.0824L11.6821 25.082L12.9393 26.3392L14.3598 25.0694C14.4089 25.0254 14.4736 25.0028 14.5394 25.0065C14.6053 25.0101 14.667 25.0398 14.711 25.0889C14.7519 25.1345 14.7745 25.1936 14.7744 25.2548H14.7754V27.0324L16.6775 27.1389C16.7256 27.1416 16.7718 27.158 16.8107 27.1864C16.8496 27.2147 16.8794 27.2537 16.8966 27.2987C16.9138 27.3436 16.9176 27.3926 16.9076 27.4396C16.8975 27.4867 16.8741 27.5298 16.84 27.5639L16.8404 27.5643L15.5832 28.8215L16.853 30.242C16.897 30.2912 16.9196 30.3558 16.916 30.4217C16.9123 30.4875 16.8826 30.5492 16.8335 30.5932C16.7879 30.6341 16.7288 30.6567 16.6676 30.6566V30.6576H14.89L14.7835 32.5597C14.7808 32.6077 14.7643 32.654 14.736 32.6929C14.7076 32.7317 14.6686 32.7616 14.6237 32.7787C14.5788 32.7959 14.5298 32.7997 14.4827 32.7897C14.4357 32.7797 14.3925 32.7563 14.3585 32.7222L14.3581 32.7226L13.1009 31.4654L11.6804 32.7352C11.6313 32.7792 11.5666 32.8018 11.5008 32.7982C11.4349 32.7945 11.3732 32.7649 11.3292 32.7157C11.2883 32.6701 11.2657 32.6111 11.2658 32.5498H11.2648V30.7723ZM9.94708 30.1993L11.5145 30.2869C11.5808 30.2869 11.6443 30.3133 11.6912 30.3601C11.738 30.4069 11.7643 30.4705 11.7643 30.5367V31.9929L12.9291 30.9517L12.9346 30.946C12.9815 30.8992 13.045 30.8729 13.1112 30.8729C13.1774 30.8729 13.241 30.8992 13.2878 30.946L14.3171 31.9753L14.4047 30.4079C14.4047 30.3416 14.431 30.2781 14.4779 30.2313C14.5247 30.1844 14.5882 30.1581 14.6545 30.1581H16.1107L15.0695 28.9933L15.0638 28.9878C15.0169 28.941 14.9906 28.8774 14.9906 28.8112C14.9906 28.745 15.0169 28.6815 15.0638 28.6346L16.0931 27.6053L14.5256 27.5177C14.4594 27.5177 14.3959 27.4914 14.349 27.4445C14.3022 27.3977 14.2759 27.3342 14.2759 27.2679V25.8117L13.1111 26.8529L13.1056 26.8586C13.0587 26.9054 12.9952 26.9317 12.929 26.9317C12.8628 26.9317 12.7992 26.9054 12.7524 26.8586L11.7231 25.8293L11.6355 27.3968C11.6355 27.463 11.6092 27.5265 11.5623 27.5734C11.5155 27.6202 11.4519 27.6465 11.3857 27.6466H9.92952L10.9707 28.8113L10.9764 28.8168C11.0232 28.8637 11.0496 28.9272 11.0496 28.9934C11.0496 29.0596 11.0232 29.1232 10.9764 29.17L9.94708 30.1993Z" fill="#71D4ED"/>
<path d="M8.54475 32.9932L7.51359 32.9767C7.33694 32.974 7.196 32.8285 7.19875 32.6518C7.2015 32.4752 7.34697 32.3342 7.52362 32.337L9.17456 32.3633L12.3228 29.2151H7.89887L6.75013 30.4535C6.62959 30.5831 6.42684 30.5903 6.29731 30.4698C6.16778 30.3493 6.16047 30.1465 6.281 30.017L7.02481 29.2151H5.32113C5.14378 29.2151 5 29.0713 5 28.894C5 28.7167 5.14378 28.5729 5.32113 28.5729H7.00288L6.28597 27.8327C6.16269 27.706 6.1655 27.5032 6.29228 27.3799C6.41903 27.2567 6.62178 27.2595 6.74509 27.3862L7.89453 28.5729H12.2365L9.18563 25.522L7.49778 25.5854C7.32116 25.5916 7.17284 25.4534 7.16663 25.2768C7.16038 25.1002 7.29853 24.9519 7.47519 24.9457L8.56825 24.9046L7.36322 23.6996C7.23784 23.5742 7.23784 23.3709 7.36322 23.2455C7.48859 23.1201 7.69191 23.1201 7.81731 23.2455L9.00681 24.435L9.02328 23.4038C9.02603 23.2272 9.17153 23.0862 9.34816 23.089C9.52478 23.0917 9.66575 23.2372 9.663 23.4138L9.63669 25.0648L12.6827 28.1108V23.675L11.496 22.5256C11.3692 22.4023 11.3664 22.1995 11.4897 22.0727C11.613 21.946 11.8158 21.9432 11.9425 22.0664L12.6827 22.7833V21.3211C12.6827 21.1438 12.8264 21 13.0038 21C13.1811 21 13.3249 21.1438 13.3249 21.3211V22.8053L14.1267 22.0614C14.2563 21.9409 14.459 21.9482 14.5796 22.0777C14.7001 22.2073 14.6928 22.41 14.5632 22.5306L13.3249 23.6793V28.213L16.5507 24.9872L16.5243 23.3363C16.5216 23.1596 16.6626 23.0141 16.8392 23.0114C17.0158 23.0086 17.1613 23.1496 17.1641 23.3262L17.1805 24.3574L18.2148 23.3231C18.3402 23.1977 18.5435 23.1977 18.6689 23.3231C18.7943 23.4485 18.7943 23.6518 18.6689 23.7772L17.6191 24.827L18.7122 24.8681C18.8888 24.8743 19.027 25.0226 19.0208 25.1992C19.0145 25.3759 18.8663 25.514 18.6896 25.5078L17.0017 25.4444L13.8732 28.5729H18.325L19.4744 27.3862C19.5977 27.2595 19.8005 27.2567 19.9272 27.3799C20.054 27.5032 20.0568 27.706 19.9335 27.8327L19.2167 28.5729H20.6789C20.8562 28.5729 21 28.7167 21 28.894C21 29.0713 20.8562 29.2151 20.6789 29.2151H19.1947L19.9386 30.017C20.0591 30.1465 20.0518 30.3493 19.9222 30.4698C19.7927 30.5903 19.59 30.5831 19.4694 30.4535L18.3207 29.2151H13.787L17.0128 32.4409L18.6638 32.4146C18.8404 32.4118 18.9859 32.5528 18.9887 32.7294C18.9914 32.9061 18.8504 33.0516 18.6738 33.0543L17.6426 33.0708L18.6769 34.105C18.8023 34.2304 18.8023 34.4338 18.6769 34.5591C18.5515 34.6845 18.3482 34.6845 18.2228 34.5591L17.173 33.5093L17.1319 34.6024C17.1257 34.7791 16.9774 34.9172 16.8008 34.911C16.6241 34.9047 16.486 34.7565 16.4922 34.5798L16.5556 32.8919L13.3249 29.6613V34.1011L14.5632 35.2499C14.6928 35.3704 14.7001 35.5732 14.5796 35.7027C14.459 35.8322 14.2563 35.8395 14.1267 35.719L13.3249 34.9752V36.6789C13.3249 36.8562 13.1811 37 13.0038 37C12.8264 37 12.6827 36.8562 12.6827 36.6789V34.9971L11.9425 35.714C11.8158 35.8373 11.613 35.8345 11.4897 35.7077C11.3664 35.5809 11.3692 35.3782 11.496 35.2549L12.6827 34.1055V29.7634L9.63175 32.8143L9.69516 34.5022C9.70138 34.6789 9.56322 34.8272 9.38659 34.8334C9.20994 34.8396 9.06166 34.7015 9.05544 34.5248L9.01438 33.4317L7.80931 34.6368C7.68394 34.7622 7.48062 34.7622 7.35522 34.6368C7.22984 34.5114 7.22984 34.3081 7.35522 34.1827L8.54475 32.9932Z" fill="#38C0F2"/>
</g>
<g clip-path="url(#clip1_158_217)">
<path d="M32.2648 30.7723L30.3627 30.6657C30.3146 30.6631 30.2684 30.6466 30.2295 30.6182C30.1906 30.5899 30.1608 30.5509 30.1436 30.5059C30.1264 30.461 30.1226 30.412 30.1326 30.365C30.1427 30.3179 30.1661 30.2748 30.2001 30.2407L30.1998 30.2403L31.457 28.9831L30.1872 27.5626C30.1552 27.5268 30.1343 27.4826 30.1269 27.4351C30.1195 27.3877 30.126 27.3391 30.1456 27.2953C30.1652 27.2514 30.197 27.2142 30.2373 27.1881C30.2776 27.162 30.3246 27.148 30.3726 27.148V27.147H32.1501L32.2567 25.2449C32.2593 25.1969 32.2758 25.1506 32.3042 25.1117C32.3325 25.0728 32.3715 25.043 32.4165 25.0258C32.4614 25.0086 32.5104 25.0048 32.5574 25.0149C32.6045 25.0249 32.6477 25.0483 32.6817 25.0824L32.6821 25.082L33.9393 26.3392L35.3598 25.0694C35.4089 25.0254 35.4736 25.0028 35.5394 25.0065C35.6053 25.0101 35.667 25.0398 35.711 25.0889C35.7519 25.1345 35.7745 25.1936 35.7744 25.2548H35.7754V27.0324L37.6775 27.1389C37.7256 27.1416 37.7718 27.158 37.8107 27.1864C37.8496 27.2147 37.8794 27.2537 37.8966 27.2987C37.9138 27.3436 37.9176 27.3926 37.9076 27.4396C37.8975 27.4867 37.8741 27.5298 37.84 27.5639L37.8404 27.5643L36.5832 28.8215L37.853 30.242C37.897 30.2912 37.9196 30.3558 37.916 30.4217C37.9123 30.4875 37.8826 30.5492 37.8335 30.5932C37.7879 30.6341 37.7288 30.6567 37.6676 30.6566V30.6576H35.89L35.7835 32.5597C35.7808 32.6077 35.7643 32.654 35.736 32.6929C35.7076 32.7317 35.6686 32.7616 35.6237 32.7787C35.5788 32.7959 35.5298 32.7997 35.4827 32.7897C35.4357 32.7797 35.3925 32.7563 35.3585 32.7222L35.3581 32.7226L34.1009 31.4654L32.6804 32.7352C32.6313 32.7792 32.5666 32.8018 32.5008 32.7982C32.4349 32.7945 32.3732 32.7649 32.3292 32.7157C32.2883 32.6701 32.2657 32.6111 32.2658 32.5498H32.2648V30.7723ZM30.9471 30.1993L32.5145 30.2869C32.5808 30.2869 32.6443 30.3133 32.6912 30.3601C32.738 30.4069 32.7643 30.4705 32.7643 30.5367V31.9929L33.9291 30.9517L33.9346 30.946C33.9815 30.8992 34.045 30.8729 34.1112 30.8729C34.1774 30.8729 34.241 30.8992 34.2878 30.946L35.3171 31.9753L35.4047 30.4079C35.4047 30.3416 35.431 30.2781 35.4779 30.2313C35.5247 30.1844 35.5882 30.1581 35.6545 30.1581H37.1107L36.0695 28.9933L36.0638 28.9878C36.0169 28.941 35.9906 28.8774 35.9906 28.8112C35.9906 28.745 36.0169 28.6815 36.0638 28.6346L37.0931 27.6053L35.5256 27.5177C35.4594 27.5177 35.3959 27.4914 35.349 27.4445C35.3022 27.3977 35.2759 27.3342 35.2759 27.2679V25.8117L34.1111 26.8529L34.1056 26.8586C34.0587 26.9054 33.9952 26.9317 33.929 26.9317C33.8628 26.9317 33.7992 26.9054 33.7524 26.8586L32.7231 25.8293L32.6355 27.3968C32.6355 27.463 32.6092 27.5265 32.5623 27.5734C32.5155 27.6202 32.4519 27.6465 32.3857 27.6466H30.9295L31.9707 28.8113L31.9764 28.8168C32.0232 28.8637 32.0496 28.9272 32.0496 28.9934C32.0496 29.0596 32.0232 29.1232 31.9764 29.17L30.9471 30.1993Z" fill="#71D4ED"/>
<path d="M29.5447 32.9932L28.5136 32.9767C28.3369 32.974 28.196 32.8285 28.1988 32.6518C28.2015 32.4752 28.347 32.3342 28.5236 32.337L30.1746 32.3633L33.3228 29.2151H28.8989L27.7501 30.4535C27.6296 30.5831 27.4268 30.5903 27.2973 30.4698C27.1678 30.3493 27.1605 30.1465 27.281 30.017L28.0248 29.2151H26.3211C26.1438 29.2151 26 29.0713 26 28.894C26 28.7167 26.1438 28.5729 26.3211 28.5729H28.0029L27.286 27.8327C27.1627 27.706 27.1655 27.5032 27.2923 27.3799C27.419 27.2567 27.6218 27.2595 27.7451 27.3862L28.8945 28.5729H33.2365L30.1856 25.522L28.4978 25.5854C28.3212 25.5916 28.1728 25.4534 28.1666 25.2768C28.1604 25.1002 28.2985 24.9519 28.4752 24.9457L29.5682 24.9046L28.3632 23.6996C28.2378 23.5742 28.2378 23.3709 28.3632 23.2455C28.4886 23.1201 28.6919 23.1201 28.8173 23.2455L30.0068 24.435L30.0233 23.4038C30.026 23.2272 30.1715 23.0862 30.3482 23.089C30.5248 23.0917 30.6658 23.2372 30.663 23.4138L30.6367 25.0648L33.6827 28.1108V23.675L32.496 22.5256C32.3692 22.4023 32.3664 22.1995 32.4897 22.0727C32.613 21.946 32.8158 21.9432 32.9425 22.0664L33.6827 22.7833V21.3211C33.6827 21.1438 33.8264 21 34.0038 21C34.1811 21 34.3249 21.1438 34.3249 21.3211V22.8053L35.1267 22.0614C35.2563 21.9409 35.459 21.9482 35.5796 22.0777C35.7001 22.2073 35.6928 22.41 35.5632 22.5306L34.3249 23.6793V28.213L37.5507 24.9872L37.5243 23.3363C37.5216 23.1596 37.6626 23.0141 37.8392 23.0114C38.0158 23.0086 38.1613 23.1496 38.1641 23.3262L38.1805 24.3574L39.2148 23.3231C39.3402 23.1977 39.5435 23.1977 39.6689 23.3231C39.7943 23.4485 39.7943 23.6518 39.6689 23.7772L38.6191 24.827L39.7122 24.8681C39.8888 24.8743 40.027 25.0226 40.0208 25.1992C40.0145 25.3759 39.8663 25.514 39.6896 25.5078L38.0017 25.4444L34.8732 28.5729H39.325L40.4744 27.3862C40.5977 27.2595 40.8005 27.2567 40.9272 27.3799C41.054 27.5032 41.0568 27.706 40.9335 27.8327L40.2167 28.5729H41.6789C41.8562 28.5729 42 28.7167 42 28.894C42 29.0713 41.8562 29.2151 41.6789 29.2151H40.1947L40.9386 30.017C41.0591 30.1465 41.0518 30.3493 40.9222 30.4698C40.7927 30.5903 40.59 30.5831 40.4694 30.4535L39.3207 29.2151H34.787L38.0128 32.4409L39.6638 32.4146C39.8404 32.4118 39.9859 32.5528 39.9887 32.7294C39.9914 32.9061 39.8504 33.0516 39.6738 33.0543L38.6426 33.0708L39.6769 34.105C39.8023 34.2304 39.8023 34.4338 39.6769 34.5591C39.5515 34.6845 39.3482 34.6845 39.2228 34.5591L38.173 33.5093L38.1319 34.6024C38.1257 34.7791 37.9774 34.9172 37.8008 34.911C37.6241 34.9047 37.486 34.7565 37.4922 34.5798L37.5556 32.8919L34.3249 29.6613V34.1011L35.5632 35.2499C35.6928 35.3704 35.7001 35.5732 35.5796 35.7027C35.459 35.8322 35.2563 35.8395 35.1267 35.719L34.3249 34.9752V36.6789C34.3249 36.8562 34.1811 37 34.0038 37C33.8264 37 33.6827 36.8562 33.6827 36.6789V34.9971L32.9425 35.714C32.8158 35.8373 32.613 35.8345 32.4897 35.7077C32.3664 35.5809 32.3692 35.3782 32.496 35.2549L33.6827 34.1055V29.7634L30.6318 32.8143L30.6952 34.5022C30.7014 34.6789 30.5632 34.8272 30.3866 34.8334C30.2099 34.8396 30.0617 34.7015 30.0554 34.5248L30.0144 33.4317L28.8093 34.6368C28.6839 34.7622 28.4806 34.7622 28.3552 34.6368C28.2298 34.5114 28.2298 34.3081 28.3552 34.1827L29.5447 32.9932Z" fill="#38C0F2"/>
</g>
<g clip-path="url(#clip2_158_217)">
<path d="M21.2648 47.7723L19.3627 47.6657C19.3146 47.6631 19.2684 47.6466 19.2295 47.6182C19.1906 47.5899 19.1608 47.5509 19.1436 47.5059C19.1264 47.461 19.1226 47.412 19.1326 47.365C19.1427 47.3179 19.1661 47.2748 19.2001 47.2407L19.1998 47.2403L20.457 45.9831L19.1872 44.5626C19.1552 44.5268 19.1343 44.4826 19.1269 44.4351C19.1195 44.3877 19.126 44.3391 19.1456 44.2953C19.1652 44.2514 19.197 44.2142 19.2373 44.1881C19.2776 44.162 19.3246 44.148 19.3726 44.148V44.147H21.1501L21.2567 42.2449C21.2593 42.1969 21.2758 42.1506 21.3042 42.1117C21.3325 42.0728 21.3715 42.043 21.4165 42.0258C21.4614 42.0086 21.5104 42.0048 21.5574 42.0149C21.6045 42.0249 21.6477 42.0483 21.6817 42.0824L21.6821 42.082L22.9393 43.3392L24.3598 42.0694C24.4089 42.0254 24.4736 42.0028 24.5394 42.0065C24.6053 42.0101 24.667 42.0398 24.711 42.0889C24.7519 42.1345 24.7745 42.1936 24.7744 42.2548H24.7754V44.0324L26.6775 44.1389C26.7256 44.1416 26.7718 44.158 26.8107 44.1864C26.8496 44.2147 26.8794 44.2537 26.8966 44.2987C26.9138 44.3436 26.9176 44.3926 26.9076 44.4396C26.8975 44.4867 26.8741 44.5298 26.84 44.5639L26.8404 44.5643L25.5832 45.8215L26.853 47.242C26.897 47.2912 26.9196 47.3558 26.916 47.4217C26.9123 47.4875 26.8826 47.5492 26.8335 47.5932C26.7879 47.6341 26.7288 47.6567 26.6676 47.6566V47.6576H24.89L24.7835 49.5597C24.7808 49.6077 24.7643 49.654 24.736 49.6929C24.7076 49.7317 24.6686 49.7616 24.6237 49.7787C24.5788 49.7959 24.5298 49.7997 24.4827 49.7897C24.4357 49.7797 24.3925 49.7563 24.3585 49.7222L24.3581 49.7226L23.1009 48.4654L21.6804 49.7352C21.6313 49.7792 21.5666 49.8018 21.5008 49.7982C21.4349 49.7945 21.3732 49.7649 21.3292 49.7157C21.2883 49.6701 21.2657 49.6111 21.2658 49.5498H21.2648V47.7723ZM19.9471 47.1993L21.5145 47.2869C21.5808 47.2869 21.6443 47.3133 21.6912 47.3601C21.738 47.4069 21.7643 47.4705 21.7643 47.5367V48.9929L22.9291 47.9517L22.9346 47.946C22.9815 47.8992 23.045 47.8729 23.1112 47.8729C23.1774 47.8729 23.241 47.8992 23.2878 47.946L24.3171 48.9753L24.4047 47.4079C24.4047 47.3416 24.431 47.2781 24.4779 47.2313C24.5247 47.1844 24.5882 47.1581 24.6545 47.1581H26.1107L25.0695 45.9933L25.0638 45.9878C25.0169 45.941 24.9906 45.8774 24.9906 45.8112C24.9906 45.745 25.0169 45.6815 25.0638 45.6346L26.0931 44.6053L24.5256 44.5177C24.4594 44.5177 24.3959 44.4914 24.349 44.4445C24.3022 44.3977 24.2759 44.3342 24.2759 44.2679V42.8117L23.1111 43.8529L23.1056 43.8586C23.0587 43.9054 22.9952 43.9317 22.929 43.9317C22.8628 43.9317 22.7992 43.9054 22.7524 43.8586L21.7231 42.8293L21.6355 44.3968C21.6355 44.463 21.6092 44.5265 21.5623 44.5734C21.5155 44.6202 21.4519 44.6465 21.3857 44.6466H19.9295L20.9707 45.8113L20.9764 45.8168C21.0232 45.8637 21.0496 45.9272 21.0496 45.9934C21.0496 46.0596 21.0232 46.1232 20.9764 46.17L19.9471 47.1993Z" fill="#71D4ED"/>
<path d="M18.5447 49.9932L17.5136 49.9767C17.3369 49.974 17.196 49.8285 17.1988 49.6518C17.2015 49.4752 17.347 49.3342 17.5236 49.337L19.1746 49.3633L22.3228 46.2151H17.8989L16.7501 47.4535C16.6296 47.5831 16.4268 47.5903 16.2973 47.4698C16.1678 47.3493 16.1605 47.1465 16.281 47.017L17.0248 46.2151H15.3211C15.1438 46.2151 15 46.0713 15 45.894C15 45.7167 15.1438 45.5729 15.3211 45.5729H17.0029L16.286 44.8327C16.1627 44.706 16.1655 44.5032 16.2923 44.3799C16.419 44.2567 16.6218 44.2595 16.7451 44.3862L17.8945 45.5729H22.2365L19.1856 42.522L17.4978 42.5854C17.3212 42.5916 17.1728 42.4534 17.1666 42.2768C17.1604 42.1002 17.2985 41.9519 17.4752 41.9457L18.5682 41.9046L17.3632 40.6996C17.2378 40.5742 17.2378 40.3709 17.3632 40.2455C17.4886 40.1201 17.6919 40.1201 17.8173 40.2455L19.0068 41.435L19.0233 40.4038C19.026 40.2272 19.1715 40.0862 19.3482 40.089C19.5248 40.0917 19.6658 40.2372 19.663 40.4138L19.6367 42.0648L22.6827 45.1108V40.675L21.496 39.5256C21.3692 39.4023 21.3664 39.1995 21.4897 39.0727C21.613 38.946 21.8158 38.9432 21.9425 39.0664L22.6827 39.7833V38.3211C22.6827 38.1438 22.8264 38 23.0038 38C23.1811 38 23.3249 38.1438 23.3249 38.3211V39.8053L24.1267 39.0614C24.2563 38.9409 24.459 38.9482 24.5796 39.0777C24.7001 39.2073 24.6928 39.41 24.5632 39.5306L23.3249 40.6793V45.213L26.5507 41.9872L26.5243 40.3363C26.5216 40.1596 26.6626 40.0141 26.8392 40.0114C27.0158 40.0086 27.1613 40.1496 27.1641 40.3262L27.1805 41.3574L28.2148 40.3231C28.3402 40.1977 28.5435 40.1977 28.6689 40.3231C28.7943 40.4485 28.7943 40.6518 28.6689 40.7772L27.6191 41.827L28.7122 41.8681C28.8888 41.8743 29.027 42.0226 29.0208 42.1992C29.0145 42.3759 28.8663 42.514 28.6896 42.5078L27.0017 42.4444L23.8732 45.5729H28.325L29.4744 44.3862C29.5977 44.2595 29.8005 44.2567 29.9272 44.3799C30.054 44.5032 30.0568 44.706 29.9335 44.8327L29.2167 45.5729H30.6789C30.8562 45.5729 31 45.7167 31 45.894C31 46.0713 30.8562 46.2151 30.6789 46.2151H29.1947L29.9386 47.017C30.0591 47.1465 30.0518 47.3493 29.9222 47.4698C29.7927 47.5903 29.59 47.5831 29.4694 47.4535L28.3207 46.2151H23.787L27.0128 49.4409L28.6638 49.4146C28.8404 49.4118 28.9859 49.5528 28.9887 49.7294C28.9914 49.9061 28.8504 50.0516 28.6738 50.0543L27.6426 50.0708L28.6769 51.105C28.8023 51.2304 28.8023 51.4338 28.6769 51.5591C28.5515 51.6845 28.3482 51.6845 28.2228 51.5591L27.173 50.5093L27.1319 51.6024C27.1257 51.7791 26.9774 51.9172 26.8008 51.911C26.6241 51.9047 26.486 51.7565 26.4922 51.5798L26.5556 49.8919L23.3249 46.6613V51.1011L24.5632 52.2499C24.6928 52.3704 24.7001 52.5732 24.5796 52.7027C24.459 52.8322 24.2563 52.8395 24.1267 52.719L23.3249 51.9752V53.6789C23.3249 53.8562 23.1811 54 23.0038 54C22.8264 54 22.6827 53.8562 22.6827 53.6789V51.9971L21.9425 52.714C21.8158 52.8373 21.613 52.8345 21.4897 52.7077C21.3664 52.5809 21.3692 52.3782 21.496 52.2549L22.6827 51.1055V46.7634L19.6318 49.8143L19.6952 51.5022C19.7014 51.6789 19.5632 51.8272 19.3866 51.8334C19.2099 51.8396 19.0617 51.7015 19.0554 51.5248L19.0144 50.4317L17.8093 51.6368C17.6839 51.7622 17.4806 51.7622 17.3552 51.6368C17.2298 51.5114 17.2298 51.3081 17.3552 51.1827L18.5447 49.9932Z" fill="#38C0F2"/>
</g>
<defs>
<filter id="filter0_b_158_217" x="-27" y="-27" width="102" height="82.4947" filterUnits="userSpaceOnUse" color-interpolation-filters="sRGB">
<feFlood flood-opacity="0" result="BackgroundImageFix"/>
<feGaussianBlur in="BackgroundImageFix" stdDeviation="13.5"/>
<feComposite in2="SourceAlpha" operator="in" result="effect1_backgroundBlur_158_217"/>
<feBlend mode="normal" in="SourceGraphic" in2="effect1_backgroundBlur_158_217" result="shape"/>
</filter>
<filter id="filter1_i_158_217" x="0" y="0" width="48" height="38.4947" filterUnits="userSpaceOnUse" color-interpolation-filters="sRGB">
<feFlood flood-opacity="0" result="BackgroundImageFix"/>
<feBlend mode="normal" in="SourceGraphic" in2="BackgroundImageFix" result="shape"/>
<feColorMatrix in="SourceAlpha" type="matrix" values="0 0 0 0 0 0 0 0 0 0 0 0 0 0 0 0 0 0 127 0" result="hardAlpha"/>
<feOffset dy="11"/>
<feGaussianBlur stdDeviation="5"/>
<feComposite in2="hardAlpha" operator="arithmetic" k2="-1" k3="1"/>
<feColorMatrix type="matrix" values="0 0 0 0 1 0 0 0 0 1 0 0 0 0 1 0 0 0 1 0"/>
<feBlend mode="normal" in2="shape" result="effect1_innerShadow_158_217"/>
</filter>
<linearGradient id="paint0_linear_158_217" x1="3.053" y1="25.9505" x2="51.477" y2="-10.2615" gradientUnits="userSpaceOnUse">
<stop stop-color="white"/>
<stop offset="1" stop-color="white" stop-opacity="0.58"/>
</linearGradient>
<clipPath id="clip0_158_217">
<rect width="16" height="16" fill="white" transform="translate(5 21)"/>
</clipPath>
<clipPath id="clip1_158_217">
<rect width="16" height="16" fill="white" transform="translate(26 21)"/>
</clipPath>
<clipPath id="clip2_158_217">
<rect width="16" height="16" fill="white" transform="translate(15 38)"/>
</clipPath>
</defs>
</svg>
