<svg width="65" height="74" viewBox="0 0 65 74" fill="none" xmlns="http://www.w3.org/2000/svg">
<g filter="url(#filter0_i_196_92)">
<path d="M43.603 22.1569C38.6557 28.8741 37.7978 38.0413 42.162 45.6004C46.5263 53.1595 54.8942 57.0001 63.1851 56.0742C61.4223 58.4677 59.1401 60.5502 56.39 62.1379C45.922 68.1817 32.6373 64.7697 26.718 54.517C20.7986 44.2644 24.486 31.0535 34.9541 25.0098C37.7042 23.422 40.6487 22.4869 43.603 22.1569Z" fill="url(#paint0_linear_196_92)"/>
</g>
<g filter="url(#filter1_i_196_92)">
<path d="M48.8456 3.97455C46.5719 4.98423 45.6845 5.83749 44.8711 7.9491C44.2233 5.90272 43.4268 4.98994 40.8965 3.97455C43.4994 3.12652 44.2058 2.14483 44.8711 -5.67003e-06C45.6887 1.97678 46.1936 3.05563 48.8456 3.97455Z" fill="url(#paint1_linear_196_92)"/>
</g>
<g filter="url(#filter2_i_196_92)">
<path d="M25.7105 22.7854C23.4368 23.7951 22.5494 24.6483 21.736 26.7599C21.0882 24.7135 20.2916 23.8008 17.7614 22.7854C20.3642 21.9373 21.0706 20.9557 21.736 18.8108C22.5535 20.7876 23.0585 21.8665 25.7105 22.7854Z" fill="url(#paint2_linear_196_92)"/>
</g>
<g filter="url(#filter3_i_196_92)">
<path d="M62.251 44.6232C59.9773 45.6329 59.0899 46.4861 58.2765 48.5978C57.6287 46.5514 56.8322 45.6386 54.3019 44.6232C56.9048 43.7752 57.6112 42.7935 58.2765 40.6486C59.0941 42.6254 59.599 43.7043 62.251 44.6232Z" fill="url(#paint3_linear_196_92)"/>
</g>
<g filter="url(#filter4_b_196_92)">
<g filter="url(#filter5_i_196_92)">
<path d="M51.514 56.438C51.6627 55.5934 51.7403 54.7246 51.7403 53.8378C51.7403 45.5419 44.9524 38.8167 36.5792 38.8167C30.3544 38.8167 25.0058 42.5335 22.6708 47.8493C20.7793 46.2312 18.3247 45.2543 15.6424 45.2543C9.6615 45.2543 4.81303 50.1114 4.81303 56.1029C4.81303 56.4365 4.82806 56.7666 4.85749 57.0926C1.98078 58.4886 -2.61068e-05 61.4179 -2.61068e-05 64.8056C-2.61068e-05 69.5461 3.87876 73.3891 8.66347 73.3891H49.5744C54.3591 73.3891 58.2379 69.5461 58.2379 64.8056C58.2379 60.7257 55.3649 57.3106 51.514 56.438Z" fill="url(#paint4_linear_196_92)"/>
</g>
</g>
<defs>
<filter id="filter0_i_196_92" x="23.8937" y="22.1569" width="39.2914" height="46.9698" filterUnits="userSpaceOnUse" color-interpolation-filters="sRGB">
<feFlood flood-opacity="0" result="BackgroundImageFix"/>
<feBlend mode="normal" in="SourceGraphic" in2="BackgroundImageFix" result="shape"/>
<feColorMatrix in="SourceAlpha" type="matrix" values="0 0 0 0 0 0 0 0 0 0 0 0 0 0 0 0 0 0 127 0" result="hardAlpha"/>
<feOffset dy="4"/>
<feGaussianBlur stdDeviation="4"/>
<feComposite in2="hardAlpha" operator="arithmetic" k2="-1" k3="1"/>
<feColorMatrix type="matrix" values="0 0 0 0 1 0 0 0 0 1 0 0 0 0 1 0 0 0 0.55 0"/>
<feBlend mode="normal" in2="shape" result="effect1_innerShadow_196_92"/>
</filter>
<filter id="filter1_i_196_92" x="40.8965" y="0" width="7.9491" height="11.9491" filterUnits="userSpaceOnUse" color-interpolation-filters="sRGB">
<feFlood flood-opacity="0" result="BackgroundImageFix"/>
<feBlend mode="normal" in="SourceGraphic" in2="BackgroundImageFix" result="shape"/>
<feColorMatrix in="SourceAlpha" type="matrix" values="0 0 0 0 0 0 0 0 0 0 0 0 0 0 0 0 0 0 127 0" result="hardAlpha"/>
<feOffset dy="4"/>
<feGaussianBlur stdDeviation="2"/>
<feComposite in2="hardAlpha" operator="arithmetic" k2="-1" k3="1"/>
<feColorMatrix type="matrix" values="0 0 0 0 1 0 0 0 0 1 0 0 0 0 1 0 0 0 0.44 0"/>
<feBlend mode="normal" in2="shape" result="effect1_innerShadow_196_92"/>
</filter>
<filter id="filter2_i_196_92" x="17.7614" y="18.8108" width="7.9491" height="11.9491" filterUnits="userSpaceOnUse" color-interpolation-filters="sRGB">
<feFlood flood-opacity="0" result="BackgroundImageFix"/>
<feBlend mode="normal" in="SourceGraphic" in2="BackgroundImageFix" result="shape"/>
<feColorMatrix in="SourceAlpha" type="matrix" values="0 0 0 0 0 0 0 0 0 0 0 0 0 0 0 0 0 0 127 0" result="hardAlpha"/>
<feOffset dy="4"/>
<feGaussianBlur stdDeviation="2"/>
<feComposite in2="hardAlpha" operator="arithmetic" k2="-1" k3="1"/>
<feColorMatrix type="matrix" values="0 0 0 0 1 0 0 0 0 1 0 0 0 0 1 0 0 0 0.44 0"/>
<feBlend mode="normal" in2="shape" result="effect1_innerShadow_196_92"/>
</filter>
<filter id="filter3_i_196_92" x="54.3019" y="40.6487" width="7.9491" height="11.9491" filterUnits="userSpaceOnUse" color-interpolation-filters="sRGB">
<feFlood flood-opacity="0" result="BackgroundImageFix"/>
<feBlend mode="normal" in="SourceGraphic" in2="BackgroundImageFix" result="shape"/>
<feColorMatrix in="SourceAlpha" type="matrix" values="0 0 0 0 0 0 0 0 0 0 0 0 0 0 0 0 0 0 127 0" result="hardAlpha"/>
<feOffset dy="4"/>
<feGaussianBlur stdDeviation="2"/>
<feComposite in2="hardAlpha" operator="arithmetic" k2="-1" k3="1"/>
<feColorMatrix type="matrix" values="0 0 0 0 1 0 0 0 0 1 0 0 0 0 1 0 0 0 0.44 0"/>
<feBlend mode="normal" in2="shape" result="effect1_innerShadow_196_92"/>
</filter>
<filter id="filter4_b_196_92" x="-27" y="11.8167" width="112.238" height="88.5724" filterUnits="userSpaceOnUse" color-interpolation-filters="sRGB">
<feFlood flood-opacity="0" result="BackgroundImageFix"/>
<feGaussianBlur in="BackgroundImageFix" stdDeviation="13.5"/>
<feComposite in2="SourceAlpha" operator="in" result="effect1_backgroundBlur_196_92"/>
<feBlend mode="normal" in="SourceGraphic" in2="effect1_backgroundBlur_196_92" result="shape"/>
</filter>
<filter id="filter5_i_196_92" x="0" y="38.8167" width="58.2379" height="44.5724" filterUnits="userSpaceOnUse" color-interpolation-filters="sRGB">
<feFlood flood-opacity="0" result="BackgroundImageFix"/>
<feBlend mode="normal" in="SourceGraphic" in2="BackgroundImageFix" result="shape"/>
<feColorMatrix in="SourceAlpha" type="matrix" values="0 0 0 0 0 0 0 0 0 0 0 0 0 0 0 0 0 0 127 0" result="hardAlpha"/>
<feOffset dy="11"/>
<feGaussianBlur stdDeviation="5"/>
<feComposite in2="hardAlpha" operator="arithmetic" k2="-1" k3="1"/>
<feColorMatrix type="matrix" values="0 0 0 0 1 0 0 0 0 1 0 0 0 0 1 0 0 0 1 0"/>
<feBlend mode="normal" in2="shape" result="effect1_innerShadow_196_92"/>
</filter>
<linearGradient id="paint0_linear_196_92" x1="44.6803" y1="18.5946" x2="36.8262" y2="66.1515" gradientUnits="userSpaceOnUse">
<stop stop-color="#FFEE94"/>
<stop offset="1" stop-color="#FF9900"/>
</linearGradient>
<linearGradient id="paint1_linear_196_92" x1="43.7213" y1="8.32154" x2="47.4622" y2="1.29785" gradientUnits="userSpaceOnUse">
<stop stop-color="#FF9900"/>
<stop offset="1" stop-color="#FFEE94"/>
</linearGradient>
<linearGradient id="paint2_linear_196_92" x1="20.5861" y1="27.1324" x2="24.327" y2="20.1087" gradientUnits="userSpaceOnUse">
<stop stop-color="#FF9900"/>
<stop offset="1" stop-color="#FFEE94"/>
</linearGradient>
<linearGradient id="paint3_linear_196_92" x1="57.1267" y1="48.9702" x2="60.8676" y2="41.9465" gradientUnits="userSpaceOnUse">
<stop stop-color="#FF9900"/>
<stop offset="1" stop-color="#FFEE94"/>
</linearGradient>
<linearGradient id="paint4_linear_196_92" x1="3.70415" y1="70.3022" x2="62.4566" y2="26.3665" gradientUnits="userSpaceOnUse">
<stop stop-color="white"/>
<stop offset="1" stop-color="white" stop-opacity="0.58"/>
</linearGradient>
</defs>
</svg>
