<svg width="61" height="50" viewBox="0 0 61 50" fill="none" xmlns="http://www.w3.org/2000/svg">
<g filter="url(#filter0_i_44_27)">
<path d="M60.7074 21.9582C60.7074 33.7782 51.1255 43.3601 39.3055 43.3601C27.4855 43.3601 17.9036 33.7782 17.9036 21.9582C17.9036 10.1382 27.4855 0.556274 39.3055 0.556274C51.1255 0.556274 60.7074 10.1382 60.7074 21.9582Z" fill="url(#paint0_linear_44_27)"/>
</g>
<g filter="url(#filter1_b_44_27)">
<g filter="url(#filter2_i_44_27)">
<path d="M51.514 32.9943C51.6627 32.1497 51.7403 31.2809 51.7403 30.3941C51.7403 22.0982 44.9524 15.373 36.5792 15.373C30.3544 15.373 25.0058 19.0898 22.6708 24.4056C20.7793 22.7875 18.3247 21.8106 15.6424 21.8106C9.6615 21.8106 4.81303 26.6677 4.81303 32.6592C4.81303 32.9928 4.82806 33.3229 4.85749 33.6489C1.98079 35.0449 -2.67029e-05 37.9742 -2.67029e-05 41.3619C-2.67029e-05 46.1024 3.87876 49.9453 8.66347 49.9453H49.5744C54.3591 49.9453 58.2379 46.1024 58.2379 41.3619C58.2379 37.282 55.3649 33.8669 51.514 32.9943Z" fill="url(#paint1_linear_44_27)"/>
</g>
</g>
<defs>
<filter id="filter0_i_44_27" x="17.9036" y="0.556274" width="42.8038" height="47.8039" filterUnits="userSpaceOnUse" color-interpolation-filters="sRGB">
<feFlood flood-opacity="0" result="BackgroundImageFix"/>
<feBlend mode="normal" in="SourceGraphic" in2="BackgroundImageFix" result="shape"/>
<feColorMatrix in="SourceAlpha" type="matrix" values="0 0 0 0 0 0 0 0 0 0 0 0 0 0 0 0 0 0 127 0" result="hardAlpha"/>
<feOffset dy="5"/>
<feGaussianBlur stdDeviation="9"/>
<feComposite in2="hardAlpha" operator="arithmetic" k2="-1" k3="1"/>
<feColorMatrix type="matrix" values="0 0 0 0 1 0 0 0 0 1 0 0 0 0 1 0 0 0 0.81 0"/>
<feBlend mode="normal" in2="shape" result="effect1_innerShadow_44_27"/>
</filter>
<filter id="filter1_b_44_27" x="-27" y="-11.627" width="112.238" height="88.5723" filterUnits="userSpaceOnUse" color-interpolation-filters="sRGB">
<feFlood flood-opacity="0" result="BackgroundImageFix"/>
<feGaussianBlur in="BackgroundImageFix" stdDeviation="13.5"/>
<feComposite in2="SourceAlpha" operator="in" result="effect1_backgroundBlur_44_27"/>
<feBlend mode="normal" in="SourceGraphic" in2="effect1_backgroundBlur_44_27" result="shape"/>
</filter>
<filter id="filter2_i_44_27" x="0" y="15.373" width="58.2379" height="44.5723" filterUnits="userSpaceOnUse" color-interpolation-filters="sRGB">
<feFlood flood-opacity="0" result="BackgroundImageFix"/>
<feBlend mode="normal" in="SourceGraphic" in2="BackgroundImageFix" result="shape"/>
<feColorMatrix in="SourceAlpha" type="matrix" values="0 0 0 0 0 0 0 0 0 0 0 0 0 0 0 0 0 0 127 0" result="hardAlpha"/>
<feOffset dy="11"/>
<feGaussianBlur stdDeviation="5"/>
<feComposite in2="hardAlpha" operator="arithmetic" k2="-1" k3="1"/>
<feColorMatrix type="matrix" values="0 0 0 0 1 0 0 0 0 1 0 0 0 0 1 0 0 0 1 0"/>
<feBlend mode="normal" in2="shape" result="effect1_innerShadow_44_27"/>
</filter>
<linearGradient id="paint0_linear_44_27" x1="36.0546" y1="33.6074" x2="53.6638" y2="2.72356" gradientUnits="userSpaceOnUse">
<stop stop-color="#FF9900"/>
<stop offset="1" stop-color="#FFEE94"/>
</linearGradient>
<linearGradient id="paint1_linear_44_27" x1="3.70415" y1="46.8585" x2="62.4566" y2="2.92282" gradientUnits="userSpaceOnUse">
<stop stop-color="white"/>
<stop offset="1" stop-color="white" stop-opacity="0.58"/>
</linearGradient>
</defs>
</svg>
