<svg width="59" height="35" viewBox="0 0 59 35" fill="none" xmlns="http://www.w3.org/2000/svg">
<g filter="url(#filter0_b_44_32)">
<g filter="url(#filter1_i_44_32)">
<path d="M51.514 17.6213C51.6627 16.7767 51.7403 15.9079 51.7403 15.0211C51.7403 6.72517 44.9524 0 36.5792 0C30.3544 0 25.0058 3.71678 22.6708 9.03258C20.7793 7.41453 18.3247 6.43761 15.6424 6.43761C9.6615 6.43761 4.81303 11.2947 4.81303 17.2862C4.81303 17.6198 4.82806 17.9499 4.85749 18.2759C1.98079 19.6719 -2.67029e-05 22.6012 -2.67029e-05 25.9889C-2.67029e-05 30.7294 3.87876 34.5723 8.66347 34.5723H49.5744C54.3591 34.5723 58.2379 30.7294 58.2379 25.9889C58.2379 21.909 55.3649 18.4939 51.514 17.6213Z" fill="url(#paint0_linear_44_32)"/>
</g>
</g>
<defs>
<filter id="filter0_b_44_32" x="-27" y="-27" width="112.238" height="88.5723" filterUnits="userSpaceOnUse" color-interpolation-filters="sRGB">
<feFlood flood-opacity="0" result="BackgroundImageFix"/>
<feGaussianBlur in="BackgroundImageFix" stdDeviation="13.5"/>
<feComposite in2="SourceAlpha" operator="in" result="effect1_backgroundBlur_44_32"/>
<feBlend mode="normal" in="SourceGraphic" in2="effect1_backgroundBlur_44_32" result="shape"/>
</filter>
<filter id="filter1_i_44_32" x="0" y="0" width="58.2379" height="44.5723" filterUnits="userSpaceOnUse" color-interpolation-filters="sRGB">
<feFlood flood-opacity="0" result="BackgroundImageFix"/>
<feBlend mode="normal" in="SourceGraphic" in2="BackgroundImageFix" result="shape"/>
<feColorMatrix in="SourceAlpha" type="matrix" values="0 0 0 0 0 0 0 0 0 0 0 0 0 0 0 0 0 0 127 0" result="hardAlpha"/>
<feOffset dy="11"/>
<feGaussianBlur stdDeviation="5"/>
<feComposite in2="hardAlpha" operator="arithmetic" k2="-1" k3="1"/>
<feColorMatrix type="matrix" values="0 0 0 0 1 0 0 0 0 1 0 0 0 0 1 0 0 0 1 0"/>
<feBlend mode="normal" in2="shape" result="effect1_innerShadow_44_32"/>
</filter>
<linearGradient id="paint0_linear_44_32" x1="3.70415" y1="31.4855" x2="62.4566" y2="-12.4502" gradientUnits="userSpaceOnUse">
<stop stop-color="white"/>
<stop offset="1" stop-color="white" stop-opacity="0.58"/>
</linearGradient>
</defs>
</svg>
