<svg width="59" height="46" viewBox="0 0 59 46" fill="none" xmlns="http://www.w3.org/2000/svg">
<g filter="url(#filter0_b_44_34)">
<g filter="url(#filter1_i_44_34)">
<path d="M51.514 17.6213C51.6627 16.7767 51.7403 15.9079 51.7403 15.0211C51.7403 6.72517 44.9524 0 36.5792 0C30.3544 0 25.0058 3.71678 22.6708 9.03258C20.7793 7.41454 18.3247 6.43761 15.6424 6.43761C9.6615 6.43761 4.81303 11.2947 4.81303 17.2862C4.81303 17.6198 4.82806 17.9499 4.85749 18.2759C1.98079 19.6719 -2.67029e-05 22.6012 -2.67029e-05 25.9889C-2.67029e-05 30.7294 3.87876 34.5723 8.66347 34.5723H49.5744C54.3591 34.5723 58.2379 30.7294 58.2379 25.9889C58.2379 21.909 55.3649 18.4939 51.514 17.6213Z" fill="url(#paint0_linear_44_34)"/>
</g>
</g>
<g filter="url(#filter2_i_44_34)">
<path d="M15.3312 30.3344C12.7688 33.6956 9.18159 40.418 15.3312 40.418C21.4807 40.418 17.8935 33.6956 15.3312 30.3344Z" fill="#00BCFF"/>
</g>
<g filter="url(#filter3_i_44_34)">
<path d="M29.7363 35.2733C27.174 38.6345 23.5867 45.3569 29.7363 45.3569C35.8859 45.3569 32.2986 38.6345 29.7363 35.2733Z" fill="#00BCFF"/>
</g>
<g filter="url(#filter4_i_44_34)">
<path d="M43.1125 30.3344C40.5502 33.6956 36.963 40.418 43.1125 40.418C49.2621 40.418 45.6749 33.6956 43.1125 30.3344Z" fill="#00BCFF"/>
</g>
<defs>
<filter id="filter0_b_44_34" x="-27" y="-27" width="112.238" height="88.5723" filterUnits="userSpaceOnUse" color-interpolation-filters="sRGB">
<feFlood flood-opacity="0" result="BackgroundImageFix"/>
<feGaussianBlur in="BackgroundImageFix" stdDeviation="13.5"/>
<feComposite in2="SourceAlpha" operator="in" result="effect1_backgroundBlur_44_34"/>
<feBlend mode="normal" in="SourceGraphic" in2="effect1_backgroundBlur_44_34" result="shape"/>
</filter>
<filter id="filter1_i_44_34" x="0" y="0" width="58.2379" height="44.5723" filterUnits="userSpaceOnUse" color-interpolation-filters="sRGB">
<feFlood flood-opacity="0" result="BackgroundImageFix"/>
<feBlend mode="normal" in="SourceGraphic" in2="BackgroundImageFix" result="shape"/>
<feColorMatrix in="SourceAlpha" type="matrix" values="0 0 0 0 0 0 0 0 0 0 0 0 0 0 0 0 0 0 127 0" result="hardAlpha"/>
<feOffset dy="11"/>
<feGaussianBlur stdDeviation="5"/>
<feComposite in2="hardAlpha" operator="arithmetic" k2="-1" k3="1"/>
<feColorMatrix type="matrix" values="0 0 0 0 1 0 0 0 0 1 0 0 0 0 1 0 0 0 1 0"/>
<feBlend mode="normal" in2="shape" result="effect1_innerShadow_44_34"/>
</filter>
<filter id="filter2_i_44_34" x="11.9357" y="30.3344" width="6.79102" height="13.0836" filterUnits="userSpaceOnUse" color-interpolation-filters="sRGB">
<feFlood flood-opacity="0" result="BackgroundImageFix"/>
<feBlend mode="normal" in="SourceGraphic" in2="BackgroundImageFix" result="shape"/>
<feColorMatrix in="SourceAlpha" type="matrix" values="0 0 0 0 0 0 0 0 0 0 0 0 0 0 0 0 0 0 127 0" result="hardAlpha"/>
<feOffset dy="9"/>
<feGaussianBlur stdDeviation="1.5"/>
<feComposite in2="hardAlpha" operator="arithmetic" k2="-1" k3="1"/>
<feColorMatrix type="matrix" values="0 0 0 0 1 0 0 0 0 1 0 0 0 0 1 0 0 0 0.21 0"/>
<feBlend mode="normal" in2="shape" result="effect1_innerShadow_44_34"/>
</filter>
<filter id="filter3_i_44_34" x="26.3408" y="35.2733" width="6.79102" height="13.0836" filterUnits="userSpaceOnUse" color-interpolation-filters="sRGB">
<feFlood flood-opacity="0" result="BackgroundImageFix"/>
<feBlend mode="normal" in="SourceGraphic" in2="BackgroundImageFix" result="shape"/>
<feColorMatrix in="SourceAlpha" type="matrix" values="0 0 0 0 0 0 0 0 0 0 0 0 0 0 0 0 0 0 127 0" result="hardAlpha"/>
<feOffset dy="9"/>
<feGaussianBlur stdDeviation="1.5"/>
<feComposite in2="hardAlpha" operator="arithmetic" k2="-1" k3="1"/>
<feColorMatrix type="matrix" values="0 0 0 0 1 0 0 0 0 1 0 0 0 0 1 0 0 0 0.21 0"/>
<feBlend mode="normal" in2="shape" result="effect1_innerShadow_44_34"/>
</filter>
<filter id="filter4_i_44_34" x="39.717" y="30.3344" width="6.79102" height="13.0836" filterUnits="userSpaceOnUse" color-interpolation-filters="sRGB">
<feFlood flood-opacity="0" result="BackgroundImageFix"/>
<feBlend mode="normal" in="SourceGraphic" in2="BackgroundImageFix" result="shape"/>
<feColorMatrix in="SourceAlpha" type="matrix" values="0 0 0 0 0 0 0 0 0 0 0 0 0 0 0 0 0 0 127 0" result="hardAlpha"/>
<feOffset dy="9"/>
<feGaussianBlur stdDeviation="1.5"/>
<feComposite in2="hardAlpha" operator="arithmetic" k2="-1" k3="1"/>
<feColorMatrix type="matrix" values="0 0 0 0 1 0 0 0 0 1 0 0 0 0 1 0 0 0 0.21 0"/>
<feBlend mode="normal" in2="shape" result="effect1_innerShadow_44_34"/>
</filter>
<linearGradient id="paint0_linear_44_34" x1="3.70415" y1="31.4855" x2="62.4566" y2="-12.4502" gradientUnits="userSpaceOnUse">
<stop stop-color="white"/>
<stop offset="1" stop-color="white" stop-opacity="0.58"/>
</linearGradient>
</defs>
</svg>
