<svg width="64" height="64" viewBox="0 0 64 64" fill="none" xmlns="http://www.w3.org/2000/svg">
<g filter="url(#filter0_b_44_41)">
<g filter="url(#filter1_i_44_41)">
<path d="M56.6108 19.3648C56.7743 18.4366 56.8595 17.4818 56.8595 16.5073C56.8595 7.39056 49.4001 0 40.1983 0C33.3577 0 27.4799 4.08452 24.9139 9.92627C22.8352 8.14813 20.1378 7.07455 17.1901 7.07455C10.6174 7.07455 5.28926 12.4122 5.28926 18.9965C5.28926 19.3631 5.30578 19.7259 5.33812 20.0841C2.17679 21.6183 0 24.8374 0 28.5602C0 33.7698 4.26255 37.9929 9.52066 37.9929H54.4793C59.7375 37.9929 64 33.7698 64 28.5602C64 24.0767 60.8427 20.3237 56.6108 19.3648Z" fill="url(#paint0_linear_44_41)"/>
</g>
</g>
<g filter="url(#filter2_i_44_41)">
<path d="M17.2229 27.7197C13.4546 32.6794 8.17899 42.5987 17.2229 42.5987C26.2669 42.5987 20.9913 32.6794 17.2229 27.7197Z" fill="#00BCFF"/>
</g>
<g filter="url(#filter3_i_44_41)">
<path d="M46.5732 27.7197C42.8049 32.6794 37.5293 42.5987 46.5732 42.5987C55.6172 42.5987 50.3415 32.6794 46.5732 27.7197Z" fill="#00BCFF"/>
</g>
<g filter="url(#filter4_i_44_41)">
<path d="M32.5096 48.3057C28.7412 53.2654 23.4656 63.1847 32.5096 63.1847C41.5535 63.1847 36.2779 53.2654 32.5096 48.3057Z" fill="#00BCFF"/>
</g>
<defs>
<filter id="filter0_b_44_41" x="-27" y="-27" width="118" height="91.9929" filterUnits="userSpaceOnUse" color-interpolation-filters="sRGB">
<feFlood flood-opacity="0" result="BackgroundImageFix"/>
<feGaussianBlur in="BackgroundImageFix" stdDeviation="13.5"/>
<feComposite in2="SourceAlpha" operator="in" result="effect1_backgroundBlur_44_41"/>
<feBlend mode="normal" in="SourceGraphic" in2="effect1_backgroundBlur_44_41" result="shape"/>
</filter>
<filter id="filter1_i_44_41" x="0" y="0" width="64" height="47.9929" filterUnits="userSpaceOnUse" color-interpolation-filters="sRGB">
<feFlood flood-opacity="0" result="BackgroundImageFix"/>
<feBlend mode="normal" in="SourceGraphic" in2="BackgroundImageFix" result="shape"/>
<feColorMatrix in="SourceAlpha" type="matrix" values="0 0 0 0 0 0 0 0 0 0 0 0 0 0 0 0 0 0 127 0" result="hardAlpha"/>
<feOffset dy="11"/>
<feGaussianBlur stdDeviation="5"/>
<feComposite in2="hardAlpha" operator="arithmetic" k2="-1" k3="1"/>
<feColorMatrix type="matrix" values="0 0 0 0 1 0 0 0 0 1 0 0 0 0 1 0 0 0 1 0"/>
<feBlend mode="normal" in2="shape" result="effect1_innerShadow_44_41"/>
</filter>
<filter id="filter2_i_44_41" x="12.2293" y="27.7197" width="9.98724" height="17.879" filterUnits="userSpaceOnUse" color-interpolation-filters="sRGB">
<feFlood flood-opacity="0" result="BackgroundImageFix"/>
<feBlend mode="normal" in="SourceGraphic" in2="BackgroundImageFix" result="shape"/>
<feColorMatrix in="SourceAlpha" type="matrix" values="0 0 0 0 0 0 0 0 0 0 0 0 0 0 0 0 0 0 127 0" result="hardAlpha"/>
<feOffset dy="9"/>
<feGaussianBlur stdDeviation="1.5"/>
<feComposite in2="hardAlpha" operator="arithmetic" k2="-1" k3="1"/>
<feColorMatrix type="matrix" values="0 0 0 0 1 0 0 0 0 1 0 0 0 0 1 0 0 0 0.21 0"/>
<feBlend mode="normal" in2="shape" result="effect1_innerShadow_44_41"/>
</filter>
<filter id="filter3_i_44_41" x="41.5796" y="27.7197" width="9.98724" height="17.879" filterUnits="userSpaceOnUse" color-interpolation-filters="sRGB">
<feFlood flood-opacity="0" result="BackgroundImageFix"/>
<feBlend mode="normal" in="SourceGraphic" in2="BackgroundImageFix" result="shape"/>
<feColorMatrix in="SourceAlpha" type="matrix" values="0 0 0 0 0 0 0 0 0 0 0 0 0 0 0 0 0 0 127 0" result="hardAlpha"/>
<feOffset dy="9"/>
<feGaussianBlur stdDeviation="1.5"/>
<feComposite in2="hardAlpha" operator="arithmetic" k2="-1" k3="1"/>
<feColorMatrix type="matrix" values="0 0 0 0 1 0 0 0 0 1 0 0 0 0 1 0 0 0 0.21 0"/>
<feBlend mode="normal" in2="shape" result="effect1_innerShadow_44_41"/>
</filter>
<filter id="filter4_i_44_41" x="27.5159" y="48.3057" width="9.98724" height="17.879" filterUnits="userSpaceOnUse" color-interpolation-filters="sRGB">
<feFlood flood-opacity="0" result="BackgroundImageFix"/>
<feBlend mode="normal" in="SourceGraphic" in2="BackgroundImageFix" result="shape"/>
<feColorMatrix in="SourceAlpha" type="matrix" values="0 0 0 0 0 0 0 0 0 0 0 0 0 0 0 0 0 0 127 0" result="hardAlpha"/>
<feOffset dy="9"/>
<feGaussianBlur stdDeviation="1.5"/>
<feComposite in2="hardAlpha" operator="arithmetic" k2="-1" k3="1"/>
<feColorMatrix type="matrix" values="0 0 0 0 1 0 0 0 0 1 0 0 0 0 1 0 0 0 0.21 0"/>
<feBlend mode="normal" in2="shape" result="effect1_innerShadow_44_41"/>
</filter>
<linearGradient id="paint0_linear_44_41" x1="4.07067" y1="34.6007" x2="68.636" y2="-13.682" gradientUnits="userSpaceOnUse">
<stop stop-color="white"/>
<stop offset="1" stop-color="white" stop-opacity="0.58"/>
</linearGradient>
</defs>
</svg>
