<svg width="48" height="48" viewBox="0 0 48 48" fill="none" xmlns="http://www.w3.org/2000/svg">
<g clip-path="url(#clip0_44_71)">
<path d="M18.7942 29.3168L13.088 28.9972C12.9438 28.9893 12.8051 28.9398 12.6884 28.8547C12.5718 28.7697 12.4823 28.6526 12.4307 28.5178C12.3792 28.383 12.3677 28.2361 12.3978 28.0949C12.428 27.9538 12.4983 27.8243 12.6004 27.7223L12.5992 27.721L16.3708 23.9494L12.5616 19.688C12.4656 19.5806 12.4027 19.4477 12.3805 19.3054C12.3584 19.1631 12.3779 19.0174 12.4366 18.8859C12.4954 18.7544 12.591 18.6427 12.7119 18.5643C12.8327 18.4859 12.9736 18.4442 13.1177 18.4441V18.441H18.4504L18.7701 12.7347C18.778 12.5906 18.8274 12.4518 18.9125 12.3352C18.9975 12.2186 19.1146 12.1291 19.2494 12.0775C19.3842 12.0259 19.5311 12.0145 19.6723 12.0446C19.8134 12.0747 19.9429 12.1451 20.045 12.2471L20.0462 12.2459L23.8178 16.0176L28.0792 12.2083C28.2268 12.0764 28.4206 12.0084 28.6182 12.0194C28.8158 12.0304 29.001 12.1194 29.133 12.2668C29.2557 12.4035 29.3234 12.5808 29.323 12.7644H29.3262V18.0971L35.0325 18.4168C35.1766 18.4247 35.3154 18.4741 35.432 18.5592C35.5487 18.6442 35.6382 18.7613 35.6897 18.8961C35.7413 19.0309 35.7527 19.1778 35.7226 19.319C35.6925 19.4601 35.6222 19.5896 35.5201 19.6916L35.5212 19.6928L31.7496 23.4645L35.5589 27.726C35.6908 27.8735 35.7588 28.0674 35.7478 28.265C35.7368 28.4626 35.6478 28.6477 35.5004 28.7798C35.3637 28.9024 35.1864 28.9701 35.0028 28.9698V28.973H29.6701L29.3504 34.6792C29.3425 34.8233 29.293 34.962 29.2079 35.0786C29.1228 35.1952 29.0058 35.2847 28.871 35.3363C28.7362 35.3878 28.5893 35.3992 28.4482 35.3692C28.307 35.3391 28.1776 35.2688 28.0755 35.1668L28.0743 35.168L24.3026 31.3963L20.0412 35.2057C19.8937 35.3376 19.6998 35.4055 19.5022 35.3946C19.3046 35.3836 19.1195 35.2946 18.9875 35.1472C18.8648 35.0105 18.7971 34.8332 18.7974 34.6495H18.7942V29.3168ZM14.8412 27.598L19.5436 27.8608C19.7423 27.8608 19.9329 27.9398 20.0734 28.0803C20.2139 28.2208 20.2929 28.4114 20.2929 28.6102V32.9787L23.7873 29.8551L23.8038 29.838C23.9443 29.6975 24.1349 29.6186 24.3336 29.6186C24.5322 29.6186 24.7228 29.6975 24.8633 29.838L27.9513 32.926L28.2141 28.2236C28.2141 28.0249 28.293 27.8343 28.4336 27.6938C28.5741 27.5533 28.7647 27.4743 28.9634 27.4743H33.332L30.2084 23.9798L30.1912 23.9634C30.0508 23.8229 29.9718 23.6324 29.9718 23.4337C29.9718 23.235 30.0508 23.0444 30.1912 22.9039L33.2793 19.8158L28.5769 19.5532C28.3781 19.5531 28.1875 19.4742 28.047 19.3337C27.9065 19.1931 27.8275 19.0025 27.8275 18.8038V14.4353L24.3332 17.5588L24.3167 17.5759C24.1762 17.7164 23.9856 17.7953 23.7869 17.7953C23.5882 17.7953 23.3976 17.7164 23.2571 17.5759L20.1692 14.4879L19.9064 19.1903C19.9064 19.3891 19.8274 19.5797 19.6869 19.7202C19.5464 19.8607 19.3558 19.9397 19.1571 19.9397H14.7885L17.9121 23.434L17.9292 23.4505C18.0697 23.591 18.1486 23.7816 18.1486 23.9803C18.1486 24.1789 18.0697 24.3695 17.9292 24.51L14.8412 27.598Z" fill="#71D4ED"/>
<path d="M10.6342 35.9795L7.54078 35.9302C7.01081 35.9219 6.588 35.4854 6.59625 34.9555C6.6045 34.4256 7.04091 34.0028 7.57087 34.011L12.5237 34.09L21.9683 24.6454H8.69662L5.25038 28.3605C4.88878 28.7492 4.28053 28.771 3.89194 28.4094C3.50334 28.0478 3.48141 27.4396 3.843 27.051L6.07444 24.6454H0.963375C0.431344 24.6454 0 24.214 0 23.6821C0 23.1501 0.431344 22.7186 0.963375 22.7186H6.00863L3.85791 20.4982C3.48806 20.118 3.4965 19.5097 3.87684 19.1398C4.25709 18.77 4.86534 18.7784 5.23528 19.1587L8.68359 22.7186H21.7096L12.5569 13.566L7.49334 13.7561C6.96347 13.7748 6.51853 13.3603 6.49988 12.8304C6.48112 12.3006 6.89559 11.8557 7.42556 11.837L10.7048 11.7139L7.08966 8.09878C6.71353 7.72256 6.71353 7.11263 7.08966 6.7365C7.46578 6.36028 8.07572 6.36028 8.45194 6.7365L12.0204 10.305L12.0698 7.21144C12.0781 6.68156 12.5146 6.25866 13.0445 6.26691C13.5743 6.27516 13.9973 6.71166 13.989 7.24153L13.9101 12.1945L23.048 21.3325V8.02491L19.488 4.57669C19.1077 4.20684 19.0993 3.5985 19.4692 3.21825C19.839 2.83791 20.4473 2.82947 20.8276 3.19931L23.048 5.35003V0.963375C23.048 0.431344 23.4793 0 24.0113 0C24.5434 0 24.9747 0.431344 24.9747 0.963375V5.41584L27.3802 3.18431C27.7688 2.82272 28.3771 2.84466 28.7387 3.23325C29.1003 3.62194 29.0783 4.23009 28.6897 4.59169L24.9747 8.03803V21.639L34.6521 11.9617L34.573 7.00875C34.5648 6.47878 34.9877 6.04238 35.5176 6.03412C36.0474 6.02587 36.4839 6.44878 36.4922 6.97866L36.5415 10.0722L39.6444 6.96928C40.0206 6.59316 40.6305 6.59316 41.0067 6.96928C41.3828 7.3455 41.3828 7.95544 41.0067 8.33166L37.8572 11.4811L41.1367 11.6042C41.6665 11.6228 42.081 12.0678 42.0623 12.5977C42.0436 13.1276 41.5988 13.542 41.0689 13.5233L36.0051 13.3332L26.6197 22.7186H39.9751L43.4233 19.1587C43.7932 18.7784 44.4015 18.77 44.7817 19.1398C45.1621 19.5097 45.1705 20.118 44.8006 20.4982L42.65 22.7186H47.0366C47.5687 22.7186 48 23.1501 48 23.6821C48 24.214 47.5687 24.6454 47.0366 24.6454H42.5842L44.8157 27.051C45.1773 27.4396 45.1553 28.0478 44.7668 28.4094C44.3781 28.771 43.7699 28.7492 43.4082 28.3605L39.962 24.6454H26.3609L36.0383 34.3228L40.9913 34.2438C41.5212 34.2355 41.9577 34.6584 41.966 35.1883C41.9742 35.7183 41.5513 36.1547 41.0214 36.1629L37.9277 36.2122L41.0306 39.3151C41.4068 39.6913 41.4068 40.3013 41.0306 40.6774C40.6545 41.0536 40.0446 41.0536 39.6683 40.6774L36.5189 37.5279L36.3958 40.8073C36.3772 41.3373 35.9322 41.7517 35.4023 41.733C34.8724 41.7143 34.458 41.2694 34.4767 40.7395L34.6669 35.6758L24.9747 25.9837V39.3034L28.6897 42.7496C29.0783 43.1112 29.1003 43.7195 28.7387 44.1081C28.3771 44.4967 27.7688 44.5186 27.3802 44.157L24.9747 41.9256V47.0367C24.9747 47.5688 24.5434 48.0001 24.0113 48.0001C23.4793 48.0001 23.048 47.5688 23.048 47.0367V41.9914L20.8276 44.142C20.4473 44.5118 19.839 44.5034 19.4692 44.1232C19.0993 43.7428 19.1077 43.1345 19.488 42.7646L23.048 39.3165V26.2903L13.8953 35.443L14.0855 40.5067C14.1041 41.0366 13.6897 41.4816 13.1598 41.5002C12.6298 41.5189 12.185 41.1044 12.1663 40.5745L12.0431 37.2952L8.42794 40.9103C8.05181 41.2865 7.44187 41.2865 7.06566 40.9103C6.68953 40.5341 6.68953 39.9243 7.06566 39.5481L10.6342 35.9795Z" fill="#38C0F2"/>
</g>
<defs>
<clipPath id="clip0_44_71">
<rect width="48" height="48" fill="white"/>
</clipPath>
</defs>
</svg>
