<svg width="64" height="65" viewBox="0 0 64 65" fill="none" xmlns="http://www.w3.org/2000/svg">
<g filter="url(#filter0_b_44_48)">
<g filter="url(#filter1_i_44_48)">
<path d="M56.6108 19.3648C56.7743 18.4366 56.8595 17.4818 56.8595 16.5073C56.8595 7.39056 49.4001 0 40.1983 0C33.3577 0 27.4799 4.08452 24.9139 9.92627C22.8352 8.14813 20.1378 7.07455 17.1901 7.07455C10.6174 7.07455 5.28926 12.4122 5.28926 18.9965C5.28926 19.3631 5.30578 19.7259 5.33812 20.0841C2.17679 21.6183 0 24.8374 0 28.5602C0 33.7698 4.26255 37.9929 9.52066 37.9929H54.4793C59.7375 37.9929 64 33.7698 64 28.5602C64 24.0766 60.8427 20.3237 56.6108 19.3648Z" fill="url(#paint0_linear_44_48)"/>
</g>
</g>
<g filter="url(#filter2_i_44_48)">
<path d="M37.6612 38.0127H27.465L23.0319 49.9334H31.0115L27.3172 64.8153L40.7643 45.2913H34.8535L37.6612 38.0127Z" fill="url(#paint1_linear_44_48)"/>
</g>
<g filter="url(#filter3_i_44_48)">
<path d="M44.6677 59.6332C43.0848 60.3361 42.467 60.9301 41.9007 62.4001C41.4498 60.9755 40.8952 60.3401 39.1338 59.6332C40.9458 59.0428 41.4375 58.3594 41.9007 56.8662C42.4699 58.2424 42.8214 58.9935 44.6677 59.6332Z" fill="url(#paint2_linear_44_48)"/>
</g>
<g filter="url(#filter4_i_44_48)">
<path d="M18.9861 44.1427C17.4033 44.8456 16.7855 45.4397 16.2192 46.9097C15.7682 45.4851 15.2137 44.8496 13.4523 44.1427C15.2643 43.5524 15.756 42.869 16.2192 41.3758C16.7884 42.752 17.1399 43.503 18.9861 44.1427Z" fill="url(#paint3_linear_44_48)"/>
</g>
<defs>
<filter id="filter0_b_44_48" x="-27" y="-27" width="118" height="91.9929" filterUnits="userSpaceOnUse" color-interpolation-filters="sRGB">
<feFlood flood-opacity="0" result="BackgroundImageFix"/>
<feGaussianBlur in="BackgroundImageFix" stdDeviation="13.5"/>
<feComposite in2="SourceAlpha" operator="in" result="effect1_backgroundBlur_44_48"/>
<feBlend mode="normal" in="SourceGraphic" in2="effect1_backgroundBlur_44_48" result="shape"/>
</filter>
<filter id="filter1_i_44_48" x="0" y="0" width="64" height="47.9929" filterUnits="userSpaceOnUse" color-interpolation-filters="sRGB">
<feFlood flood-opacity="0" result="BackgroundImageFix"/>
<feBlend mode="normal" in="SourceGraphic" in2="BackgroundImageFix" result="shape"/>
<feColorMatrix in="SourceAlpha" type="matrix" values="0 0 0 0 0 0 0 0 0 0 0 0 0 0 0 0 0 0 127 0" result="hardAlpha"/>
<feOffset dy="11"/>
<feGaussianBlur stdDeviation="5"/>
<feComposite in2="hardAlpha" operator="arithmetic" k2="-1" k3="1"/>
<feColorMatrix type="matrix" values="0 0 0 0 1 0 0 0 0 1 0 0 0 0 1 0 0 0 1 0"/>
<feBlend mode="normal" in2="shape" result="effect1_innerShadow_44_48"/>
</filter>
<filter id="filter2_i_44_48" x="21.0319" y="38.0127" width="19.7325" height="26.8026" filterUnits="userSpaceOnUse" color-interpolation-filters="sRGB">
<feFlood flood-opacity="0" result="BackgroundImageFix"/>
<feBlend mode="normal" in="SourceGraphic" in2="BackgroundImageFix" result="shape"/>
<feColorMatrix in="SourceAlpha" type="matrix" values="0 0 0 0 0 0 0 0 0 0 0 0 0 0 0 0 0 0 127 0" result="hardAlpha"/>
<feOffset dx="-2"/>
<feGaussianBlur stdDeviation="4.5"/>
<feComposite in2="hardAlpha" operator="arithmetic" k2="-1" k3="1"/>
<feColorMatrix type="matrix" values="0 0 0 0 1 0 0 0 0 1 0 0 0 0 1 0 0 0 0.5 0"/>
<feBlend mode="normal" in2="shape" result="effect1_innerShadow_44_48"/>
</filter>
<filter id="filter3_i_44_48" x="39.1338" y="56.8662" width="5.53387" height="9.53391" filterUnits="userSpaceOnUse" color-interpolation-filters="sRGB">
<feFlood flood-opacity="0" result="BackgroundImageFix"/>
<feBlend mode="normal" in="SourceGraphic" in2="BackgroundImageFix" result="shape"/>
<feColorMatrix in="SourceAlpha" type="matrix" values="0 0 0 0 0 0 0 0 0 0 0 0 0 0 0 0 0 0 127 0" result="hardAlpha"/>
<feOffset dy="4"/>
<feGaussianBlur stdDeviation="2"/>
<feComposite in2="hardAlpha" operator="arithmetic" k2="-1" k3="1"/>
<feColorMatrix type="matrix" values="0 0 0 0 1 0 0 0 0 1 0 0 0 0 1 0 0 0 0.44 0"/>
<feBlend mode="normal" in2="shape" result="effect1_innerShadow_44_48"/>
</filter>
<filter id="filter4_i_44_48" x="13.4523" y="41.3758" width="5.53387" height="9.53389" filterUnits="userSpaceOnUse" color-interpolation-filters="sRGB">
<feFlood flood-opacity="0" result="BackgroundImageFix"/>
<feBlend mode="normal" in="SourceGraphic" in2="BackgroundImageFix" result="shape"/>
<feColorMatrix in="SourceAlpha" type="matrix" values="0 0 0 0 0 0 0 0 0 0 0 0 0 0 0 0 0 0 127 0" result="hardAlpha"/>
<feOffset dy="4"/>
<feGaussianBlur stdDeviation="2"/>
<feComposite in2="hardAlpha" operator="arithmetic" k2="-1" k3="1"/>
<feColorMatrix type="matrix" values="0 0 0 0 1 0 0 0 0 1 0 0 0 0 1 0 0 0 0.44 0"/>
<feBlend mode="normal" in2="shape" result="effect1_innerShadow_44_48"/>
</filter>
<linearGradient id="paint0_linear_44_48" x1="4.07067" y1="34.6007" x2="68.636" y2="-13.682" gradientUnits="userSpaceOnUse">
<stop stop-color="white"/>
<stop offset="1" stop-color="white" stop-opacity="0.58"/>
</linearGradient>
<linearGradient id="paint1_linear_44_48" x1="29.7065" y1="62.2335" x2="47.0045" y2="38.3548" gradientUnits="userSpaceOnUse">
<stop stop-color="#FF9900"/>
<stop offset="1" stop-color="#FFEE94"/>
</linearGradient>
<linearGradient id="paint2_linear_44_48" x1="41.1003" y1="62.6594" x2="43.7045" y2="57.7698" gradientUnits="userSpaceOnUse">
<stop stop-color="#FF9900"/>
<stop offset="1" stop-color="#FFEE94"/>
</linearGradient>
<linearGradient id="paint3_linear_44_48" x1="15.4187" y1="47.169" x2="18.023" y2="42.2793" gradientUnits="userSpaceOnUse">
<stop stop-color="#FF9900"/>
<stop offset="1" stop-color="#FFEE94"/>
</linearGradient>
</defs>
</svg>
