<svg width="32" height="32" viewBox="0 0 32 32" fill="none" xmlns="http://www.w3.org/2000/svg">
<g clip-path="url(#clip0_17_118)">
<path d="M26 2.66667H24V0.666667C24 0.293333 23.7067 0 23.3333 0C22.96 0 22.6667 0.293333 22.6667 0.666667V2.66667H9.33333V0.666667C9.33333 0.293333 9.04 0 8.66667 0C8.29333 0 8 0.293333 8 0.666667V2.66667H6C2.69333 2.66667 0 5.36 0 8.66667V26C0 29.3067 2.69333 32 6 32H26C29.3067 32 32 29.3067 32 26V8.66667C32 5.36 29.3067 2.66667 26 2.66667ZM15.3333 12V17.3333H9.33333V12H15.3333ZM22.6667 12V17.3333H16.6667V12H22.6667ZM30.6667 12V17.3333H24V12H30.6667ZM8 17.3333H1.33333V12H8V17.3333ZM1.33333 18.6667H8V24H1.33333V18.6667ZM9.33333 18.6667H15.3333V24H9.33333V18.6667ZM15.3333 25.3333V30.6667H9.33333V25.3333H15.3333ZM16.6667 25.3333H22.6667V30.6667H16.6667V25.3333ZM16.6667 24V18.6667H22.6667V24H16.6667ZM24 18.6667H30.6667V24H24V18.6667ZM6 4H26C28.5733 4 30.6667 6.09333 30.6667 8.66667V10.6667H1.33333V8.66667C1.33333 6.09333 3.42667 4 6 4ZM1.33333 26V25.3333H8V30.6667H6C3.42667 30.6667 1.33333 28.5733 1.33333 26ZM26 30.6667H24V25.3333H30.6667V26C30.6667 28.5733 28.5733 30.6667 26 30.6667Z" fill="white"/>
</g>
<defs>
<clipPath id="clip0_17_118">
<rect width="32" height="32" fill="white"/>
</clipPath>
</defs>
</svg>
